# xmcd
#
# Track frame offsets:
#	150
#	12257
#	27375
#	36760
#	49500
#	61274
#	72657
#	83695
#	93827
#	104398
#	118665
#	130051
#	143623
#	155063
#	167774
#	178049
#
# Disc length: 2537 seconds
#
# Revision: 1
# Processed by: cddbd v1.5.2PL0 Copyright (c) Steve Scherf et al.
# Submitted via: audiograbber 1.83.01
#
DISCID=d109e710
DTITLE=Various Artist - Classic Country - the ultimate collection
DYEAR=1900
DGENRE=Country
TTITLE0=Hank Williams - Your Cheatin' Heart
TTITLE1=Kenny Rogers - Tell It All Brother
TTITLE2=George Jones - Still Hurtin
TTITLE3=Al Dexter - Pistol Packin' Mama
TTITLE4=Roy Acuff - Just To Ease My Worried Mind
TTITLE5=Ginny Wright and Jim Reeves - I Love You
TTITLE6=Patsy Cline - I Can't Forget
TTITLE7=Kitty Wells - I Heard A Jukebox Playing
TTITLE8=Waylon Jennings - Burning Memories
TTITLE9=Tex Ritter - Boll Weevil
TTITLE10=Marty Robbins - After You Leave Me
TTITLE11=Tennessee Ernie Ford - Mule Train
TTITLE12=Orange Blossom Special - Bill Monroe and His Bluegrass Boys
TTITLE13=Lynn Anderson - Top Of The World
TTITLE14=Ferlin Husky - Wings Of A Dove
TTITLE15=Billie Jo Spears - The Cheatin Kind
EXTD=
EXTT0=
EXTT1=
EXTT2=
EXTT3=
EXTT4=
EXTT5=
EXTT6=
EXTT7=
EXTT8=
EXTT9=
EXTT10=
EXTT11=
EXTT12=
EXTT13=
EXTT14=
EXTT15=
PLAYORDER=
